<svg xmlns="http://www.w3.org/2000/svg" width="34" height="34" viewBox="0 0 34 34" fill="none">
  <g filter="url(#filter0_i_1188_361)">
    <path d="M16.999 10.4747C16.999 6.81428 14.0316 3.8469 10.3712 3.8469C6.71072 3.8469 3.74334 6.81428 3.74334 10.4747C3.74334 14.1352 6.71072 17.1026 10.3712 17.1026H11.6305C13.549 17.1026 14.5083 17.1026 15.2358 16.7174C15.8228 16.4065 16.303 15.9264 16.6138 15.3393C16.999 14.6118 16.999 13.6526 16.999 11.734V10.4747Z" fill="#555A92" fill-opacity="0.5"/>
    <path d="M12.3144 12.3652C9.72609 9.77686 5.52958 9.77686 2.94125 12.3652C0.352917 14.9535 0.352917 19.15 2.94125 21.7384C5.52958 24.3267 9.72609 24.3267 12.3144 21.7384L13.2049 20.8479C14.5615 19.4913 15.2398 18.813 15.4818 18.0262C15.6772 17.3913 15.6772 16.7123 15.4818 16.0774C15.2398 15.2906 14.5615 14.6123 13.2049 13.2556L12.3144 12.3652Z" fill="#555A92" fill-opacity="0.5"/>
    <path d="M10.3712 17.1026C6.71072 17.1026 3.74334 20.0699 3.74334 23.7304C3.74334 27.3908 6.71072 30.3582 10.3712 30.3582C14.0316 30.3582 16.999 27.3908 16.999 23.7304V22.4711C16.999 20.5526 16.999 19.5933 16.6138 18.8658C16.303 18.2787 15.8228 17.7986 15.2358 17.4878C14.5083 17.1026 13.549 17.1026 11.6305 17.1026H10.3712Z" fill="#555A92" fill-opacity="0.5"/>
    <path d="M12.2616 21.6856C9.6733 24.2739 9.6733 28.4704 12.2616 31.0588C14.85 33.6471 19.0465 33.6471 21.6348 31.0588C24.2231 28.4704 24.2231 24.2739 21.6348 21.6856L20.7444 20.7951C19.3877 19.4385 18.7094 18.7602 17.9226 18.5182C17.2877 18.3228 16.6087 18.3228 15.9738 18.5182C15.187 18.7602 14.5087 19.4385 13.1521 20.7951L12.2616 21.6856Z" fill="#555A92" fill-opacity="0.5"/>
    <path d="M16.999 23.7304C16.999 27.3908 19.9664 30.3582 23.6268 30.3582C27.2873 30.3582 30.2547 27.3908 30.2547 23.7304C30.2547 20.0699 27.2873 17.1026 23.6268 17.1026H22.3675C20.449 17.1026 19.4897 17.1026 18.7622 17.4878C18.1752 17.7986 17.695 18.2787 17.3842 18.8658C16.999 19.5933 16.999 20.5526 16.999 22.4711V23.7304Z" fill="#555A92" fill-opacity="0.5"/>
    <path d="M21.6856 21.7384C24.2739 24.3267 28.4704 24.3267 31.0588 21.7384C33.6471 19.15 33.6471 14.9535 31.0588 12.3652C28.4704 9.77686 24.2739 9.77686 21.6856 12.3652L20.7951 13.2556C19.4385 14.6123 18.7602 15.2906 18.5182 16.0774C18.3228 16.7123 18.3228 17.3913 18.5182 18.0262C18.7602 18.813 19.4385 19.4913 20.7951 20.8479L21.6856 21.7384Z" fill="#555A92" fill-opacity="0.5"/>
    <path d="M23.6268 17.1026C27.2873 17.1026 30.2547 14.1352 30.2547 10.4747C30.2547 6.81428 27.2873 3.8469 23.6268 3.8469C19.9664 3.8469 16.999 6.81428 16.999 10.4747V11.734C16.999 13.6526 16.999 14.6118 17.3842 15.3393C17.695 15.9264 18.1752 16.4065 18.7622 16.7174C19.4897 17.1026 20.449 17.1026 22.3675 17.1026H23.6268Z" fill="#555A92" fill-opacity="0.5"/>
    <path d="M21.6348 12.3144C24.2231 9.72609 24.2231 5.52958 21.6348 2.94125C19.0465 0.352917 14.85 0.352917 12.2616 2.94125C9.6733 5.52958 9.6733 9.72609 12.2616 12.3144L13.1521 13.2049C14.5087 14.5615 15.187 15.2398 15.9738 15.4818C16.6087 15.6772 17.2877 15.6772 17.9226 15.4818C18.7094 15.2398 19.3877 14.5615 20.7444 13.2049L21.6348 12.3144Z" fill="#555A92" fill-opacity="0.5"/>
  </g>
  <path d="M16.999 10.4747C16.999 6.81428 14.0316 3.8469 10.3712 3.8469C6.71072 3.8469 3.74334 6.81428 3.74334 10.4747C3.74334 14.1352 6.71072 17.1026 10.3712 17.1026M16.999 10.4747V11.734M16.999 10.4747C16.999 6.81428 19.9664 3.8469 23.6268 3.8469C27.2873 3.8469 30.2547 6.81428 30.2547 10.4747C30.2547 14.1352 27.2873 17.1026 23.6268 17.1026M10.3712 17.1026H11.6305M10.3712 17.1026C6.71072 17.1026 3.74334 20.0699 3.74334 23.7304C3.74334 27.3908 6.71072 30.3582 10.3712 30.3582C14.0316 30.3582 16.999 27.3908 16.999 23.7304M11.6305 17.1026C13.549 17.1026 14.5083 17.1026 15.2358 16.7174C15.8228 16.4065 16.303 15.9264 16.6138 15.3393C16.999 14.6118 16.999 13.6526 16.999 11.734M11.6305 17.1026C13.549 17.1026 14.5083 17.1026 15.2358 17.4878C15.8228 17.7986 16.303 18.2787 16.6138 18.8658C16.999 19.5933 16.999 20.5526 16.999 22.4711M16.999 11.734C16.999 13.6526 16.999 14.6118 17.3842 15.3393C17.695 15.9264 18.1752 16.4065 18.7622 16.7174C19.4897 17.1026 20.449 17.1026 22.3675 17.1026M16.999 23.7304V22.4711M16.999 23.7304C16.999 27.3908 19.9664 30.3582 23.6268 30.3582C27.2873 30.3582 30.2547 27.3908 30.2547 23.7304C30.2547 20.0699 27.2873 17.1026 23.6268 17.1026M16.999 22.4711C16.999 20.5526 16.999 19.5933 17.3842 18.8658C17.695 18.2787 18.1752 17.7986 18.7622 17.4878C19.4897 17.1026 20.449 17.1026 22.3675 17.1026M23.6268 17.1026H22.3675M2.94125 12.3652C5.52958 9.77686 9.72609 9.77686 12.3144 12.3652L13.2049 13.2556C14.5615 14.6123 15.2398 15.2906 15.4818 16.0774C15.6772 16.7123 15.6772 17.3913 15.4818 18.0262C15.2398 18.813 14.5615 19.4913 13.2049 20.8479L12.3144 21.7384C9.72609 24.3267 5.52958 24.3267 2.94125 21.7384C0.352917 19.15 0.352917 14.9535 2.94125 12.3652ZM12.2616 31.0588C9.6733 28.4704 9.6733 24.2739 12.2616 21.6856L13.1521 20.7951C14.5087 19.4385 15.187 18.7602 15.9738 18.5182C16.6087 18.3228 17.2877 18.3228 17.9226 18.5182C18.7094 18.7602 19.3877 19.4385 20.7444 20.7951L21.6348 21.6856C24.2231 24.2739 24.2231 28.4704 21.6348 31.0588C19.0465 33.6471 14.85 33.6471 12.2616 31.0588ZM31.0588 21.7384C28.4704 24.3267 24.2739 24.3267 21.6856 21.7384L20.7951 20.8479C19.4385 19.4913 18.7602 18.813 18.5182 18.0262C18.3228 17.3913 18.3228 16.7123 18.5182 16.0774C18.7602 15.2906 19.4385 14.6123 20.7951 13.2556L21.6856 12.3652C24.2739 9.77686 28.4704 9.77686 31.0588 12.3652C33.6471 14.9535 33.6471 19.15 31.0588 21.7384ZM21.6348 2.94125C24.2231 5.52958 24.2231 9.72609 21.6348 12.3144L20.7444 13.2049C19.3877 14.5615 18.7094 15.2398 17.9226 15.4818C17.2877 15.6772 16.6087 15.6772 15.9738 15.4818C15.187 15.2398 14.5087 14.5615 13.1521 13.2049L12.2616 12.3144C9.6733 9.72609 9.6733 5.52958 12.2616 2.94125C14.85 0.352917 19.0465 0.352917 21.6348 2.94125Z" stroke="white" stroke-opacity="0.25"/>
  <defs>
    <filter id="filter0_i_1188_361" x="0.5" y="0.5" width="33" height="33" filterUnits="userSpaceOnUse" color-interpolation-filters="sRGB">
      <feFlood flood-opacity="0" result="BackgroundImageFix"/>
      <feBlend mode="normal" in="SourceGraphic" in2="BackgroundImageFix" result="shape"/>
      <feColorMatrix in="SourceAlpha" type="matrix" values="0 0 0 0 0 0 0 0 0 0 0 0 0 0 0 0 0 0 127 0" result="hardAlpha"/>
      <feOffset/>
      <feGaussianBlur stdDeviation="5"/>
      <feComposite in2="hardAlpha" operator="arithmetic" k2="-1" k3="1"/>
      <feColorMatrix type="matrix" values="0 0 0 0 0 0 0 0 0 0 0 0 0 0 0 0 0 0 0.5 0"/>
      <feBlend mode="normal" in2="shape" result="effect1_innerShadow_1188_361"/>
    </filter>
  </defs>
</svg>